<?xml version="1.0" standalone="no"?>
<!DOCTYPE svg PUBLIC "-//W3C//DTD SVG 20010904//EN"
 "http://www.w3.org/TR/2001/REC-SVG-20010904/DTD/svg10.dtd">
<svg version="1.0" xmlns="http://www.w3.org/2000/svg"
 width="409.000000pt" height="409.000000pt" viewBox="0 0 409.000000 409.000000"
 preserveAspectRatio="xMidYMid meet">
<metadata>
Created by potrace 1.11, written by Peter Selinger 2001-2013
</metadata>
<g transform="translate(0.000000,409.000000) scale(0.100000,-0.100000)"
fill="#000000" stroke="none">
<path d="M1898 3995 c-2 -1 -34 -5 -73 -9 -428 -37 -845 -233 -1165 -547 -118
-116 -158 -165 -254 -309 -177 -266 -278 -542 -316 -860 -9 -77 -6 -408 5
-470 40 -237 93 -413 177 -585 246 -503 679 -866 1228 -1026 36 -11 81 -22
100 -25 19 -3 55 -10 80 -15 25 -6 72 -13 105 -17 81 -9 417 -8 480 1 28 5 66
11 85 13 75 12 260 63 355 99 671 251 1156 873 1239 1588 12 111 14 353 2 435
-3 23 -9 61 -12 85 -11 81 -53 253 -84 342 -143 408 -433 774 -794 1002 -148
94 -458 224 -586 247 -14 2 -32 7 -40 10 -8 3 -33 8 -55 11 -22 3 -71 10 -110
16 -61 9 -359 20 -367 14z"/>
</g>
</svg>
