<?xml version="1.0" encoding="UTF-8"?>
<svg width="50px" height="50px" viewBox="0 0 50 50" version="1.1" xmlns="http://www.w3.org/2000/svg" xmlns:xlink="http://www.w3.org/1999/xlink">
    <title>reseource guide t</title>
    <defs>
        <path d="M26.1148432,4.21414399 L26.0563114,4.17512283 C24.8466553,3.02399849 23.4223828,2.47770219 21.783494,2.55574452 L21.7249622,2.43868103 L21.7639834,2.41917045 C23.2467876,2.08749055 24.1247638,1.73630008 24.3979119,1.34608844 C24.4759543,1.03391912 24.3784014,0.858323885 24.0467215,0.819302721 C23.3053193,0.916855631 22.6029384,1.07294029 21.9981104,1.32657785 C22.7785336,0.819302721 23.0711924,0.468112245 22.8955971,0.292517007 C22.1346844,0.312027589 21.2957294,0.702239229 20.4372638,1.48266251 C20.7494331,0.936366213 20.8860072,0.624196901 20.8079649,0.585175737 C20.378732,0.858323885 20.0275416,1.1704932 19.7153723,1.50217309 C19.0520125,2.24357521 18.5252268,2.92644558 18.1155045,3.5507842 L18.095994,3.58980537 C17.0619331,5.287226 16.320531,6.98464664 15.8912982,8.72108844 L15.7352135,8.85766251 L15.6961924,8.87717309 C15.0718537,8.09674981 14.310941,7.43339002 13.4134543,6.90660431 C12.3598828,6.20422336 11.1112056,5.56037415 9.66742252,4.91652494 C8.10657596,4.0970805 6.50670824,3.43372071 4.90684051,2.906935 C4.88732993,4.72141912 5.7848167,6.14569161 7.5212585,7.19926304 L7.5212585,7.21877362 C6.91643046,7.21877362 6.31160242,7.31632653 5.72628496,7.49192177 C5.84334845,9.16983182 7.03349395,10.3209562 9.27721088,10.9452948 L9.2577003,10.9843159 C8.37972411,10.9257842 7.65783258,11.2379535 7.0920257,11.8818027 C7.83342782,13.3255858 9.14063681,14.0084562 11.0331633,13.969435 C10.6624622,14.1645408 10.3698035,14.3596466 10.1746977,14.5937736 C9.82350718,14.9644747 9.70644369,15.3937075 9.82350718,15.881472 C10.2332294,16.6228741 10.9551209,16.954554 12.0282029,16.8960223 L12.0867347,16.9740646 L12.0672241,17.0130858 C10.2137188,18.9251228 7.97000189,19.7835884 5.3555839,19.6079932 L5.31656274,19.6275038 C3.71669501,19.6079932 1.99976379,18.8470805 0.146258503,17.3252551 C1.99976379,19.9982048 4.47760771,21.9297525 7.54076909,23.1589191 C11.0331633,24.3100435 14.545068,24.4075964 18.0374622,23.4125567 L18.095994,23.4125567 C21.4908352,22.4370276 24.3588908,20.4079271 26.7391818,17.3642763 C27.8317744,15.7839191 28.5146447,14.2620937 28.7877929,12.7988001 C30.5632559,12.8573318 31.8314437,12.3500567 32.6313776,11.2574641 L32.611867,11.2184429 C32.0070389,11.4330593 30.8559146,11.3745276 29.158494,11.0233371 L29.158494,10.8282313 C31.0315098,10.6136149 32.143613,10.0087868 32.4948035,9.01374717 C31.1875945,9.5210223 29.8998961,9.54053288 28.6317082,9.05276833 C28.3975813,7.29681595 27.5586262,5.67743764 26.1148432,4.21414399" id="path-1"></path>
    </defs>
    <g id="Sketches" stroke="none" stroke-width="1" fill="none" fill-rule="evenodd">
        <g id="Research-Guide-Child" transform="translate(-1119.000000, -4108.000000)">
            <g id="footer" transform="translate(0.000000, 3888.000000)">
                <g id="reseource-guide-t" transform="translate(1119.000000, 220.000000)">
                    <circle id="Oval" fill="#2CB5F3" cx="25" cy="25" r="25"></circle>
                    <g id="icon" transform="translate(9.122449, 12.122449)">
                        <mask id="mask-2" fill="white">
                            <use xlink:href="#path-1"></use>
                        </mask>
                        <use id="Mask" fill="#001F43" xlink:href="#path-1"></use>
                    </g>
                </g>
            </g>
        </g>
    </g>
</svg>