<svg width="54" height="86" viewBox="0 0 54 86" xmlns="http://www.w3.org/2000/svg"><g fill="none" fill-rule="evenodd"><path d="M48.7771 52.0734S48.3363 8.2814 2.6338 5.783v39.6774c0 3.6738 2.939 6.6129 6.613 6.6129H48.777z" fill="#00D9FF" fill-rule="nonzero"/><path d="M29.0854 56.188h-3.38c-2.2042 0-3.9677 1.7635-3.9677 3.8208v22.6308C48.3363 81.1701 48.6302 56.188 48.6302 56.188H29.0854z" fill="#04ABFF" fill-rule="nonzero"/><path d="M7.9241 1.2276c12.3441.7347 24.2473 4.8494 32.7706 14.1075 5.7312 6.172 9.405 14.1075 11.1684 22.3369.5878 2.939 1.1757 5.878 1.1757 8.8171H14.39c-3.6738 0-6.466-2.939-6.466-6.4659v-4.9964c.147-10.7276 0-33.7992 0-33.7992zM33.2 60.5966h0-3.086c-1.9103 0-3.5268 1.4696-3.5268 3.38V84.403c23.9533-1.3225 24.2473-23.9533 24.2473-23.9533H33.2v.147z" stroke="#231F20" stroke-width="1.4695"/><path d="M16.3005 59.421v-1.3226c0-1.3225-.8817-1.9104-1.9104-1.9104H2.9277s.147 12.491 13.5197 13.2258c-.147 0-.147-9.9928-.147-9.9928z" fill="#1755FF" fill-rule="nonzero"/><path d="M10.1284 59.1271h1.4696c1.0286 0 1.7634.7348 1.7634 1.7634V71.0303C1.3113 70.4425 1.3113 59.1271 1.3113 59.1271h8.8171z" stroke="#231F20" stroke-width="1.4695"/></g></svg>