<svg width="60px" height="60px" viewBox="0 0 60 60" version="1.1" xmlns="http://www.w3.org/2000/svg" xmlns:xlink="http://www.w3.org/1999/xlink">
    <title>Help us grow</title>
    <g id="Sketches" stroke="none" stroke-width="1" fill="none" fill-rule="evenodd">
        <g id="Research-Guide-Child" transform="translate(-139.000000, -3455.000000)" fill="#002D8C" fill-rule="nonzero">
            <g id="Help-Us-grow" transform="translate(83.000000, 3413.000000)">
                <path d="M111,42 L61,42 C58.2385763,42 56,44.2385763 56,47 L56,97 C56,99.7614237 58.2385763,102 61,102 L111,102 C113.761424,102 116,99.7614237 116,97 L116,47 C116,44.2385763 113.761424,42 111,42 Z M61,44.5 L111,44.5 C112.380712,44.5 113.5,45.6192881 113.5,47 L113.5,57 L58.5,57 L58.5,47 C58.5,45.6192881 59.6192881,44.5 61,44.5 Z M111,99.5 L87.25,99.5 L87.25,91.425 L91.9375,88.3625 C92.713506,90.0395791 94.3896079,91.1163771 96.2375,91.125 C98.5375,91.125 101.55,88.1375 102.4875,87.2125 C102.939928,86.7313125 102.939928,85.9811875 102.4875,85.5 C101.6125,84.5875 98.6,81.6 96.2375,81.6 C93.8506785,81.6060072 91.8389866,83.3822882 91.5375,85.75 C91.364564,85.773657 91.1984995,85.8332699 91.05,85.925 L87.3,88.425 L87.3,83.0375 C87.2741726,81.2872616 87.8824407,79.586775 89.0125,78.25 C91.4441986,79.6744961 94.5324021,79.2678827 96.5125,77.2625 C98.725,75.05 98.675,68.75 98.6375,67.5125 C98.6375,66.8221441 98.0778559,66.2625 97.3875,66.2625 C96.1375,66.2625 89.8875,66.1875 87.6375,68.4 C85.4444514,70.6080349 85.2099819,74.0931043 87.0875,76.575 C85.5488127,78.3734891 84.7178567,80.6708381 84.75,83.0375 L84.75,83.5625 L81,80.525 C82.6994,78.042832 82.3894989,74.7022033 80.2625,72.575 C78.05,70.3625 71.7375,70.4125 70.5125,70.45 C69.8221441,70.45 69.2625,71.0096441 69.2625,71.7 C69.2625,72.95 69.175,79.2 71.4,81.4625 C73.4703101,83.5263223 76.6946243,83.8793873 79.1625,82.3125 L84.75,86.725 L84.75,86.725 L84.75,99.5 L61,99.5 C59.6192881,99.5 58.5,98.3807119 58.5,97 L58.5,59.5 L113.5,59.5 L113.5,97 C113.5,98.3807119 112.380712,99.5 111,99.5 Z M93.975,86.3625 C93.9818314,85.1157964 94.9907964,84.1068314 96.2375,84.1 C97.5842955,84.5377086 98.7945343,85.3172574 99.75,86.3625 C98.7978873,87.3998711 97.5978615,88.1783825 96.2625,88.6250346 C95.6591297,88.6283243 95.0791524,88.3918199 94.6501609,87.9675169 C94.2211695,87.5432139 93.9783061,86.9658704 93.975,86.3625 Z M89.45,70.2375 C90.375,69.3 93.6,68.8875 96.1625,68.825 C96.1,71.3875 95.6875,74.6 94.75,75.5375 C93.8151471,76.5407659 92.4072223,76.9537459 91.0785555,76.6144277 C89.7498886,76.2751095 88.7123905,75.2376114 88.3730723,73.9089445 C88.0337541,72.5802777 88.4467341,71.1723529 89.45,70.2375 L89.45,70.2375 Z M73.2,79.65 C72.275,78.725 71.8625,75.5125 71.8,72.95 C74.3625,72.95 77.575,73.425 78.5125,74.35 C79.9760545,75.8170064 79.9732563,78.1926954 78.5062499,79.6562499 C77.0392436,81.1198045 74.6635546,81.1170063 73.2,79.65 Z M61,48.25 C61,47.5596441 61.5596441,47 62.25,47 L82.25,47 C82.9403559,47 83.5,47.5596441 83.5,48.25 C83.5,48.9403559 82.9403559,49.5 82.25,49.5 L62.25,49.5 C61.5596441,49.5 61,48.9403559 61,48.25 Z M61,53.25 C61,52.5596441 61.5596441,52 62.25,52 L82.25,52 C82.9403559,52 83.5,52.5596441 83.5,53.25 C83.5,53.9403559 82.9403559,54.5 82.25,54.5 L62.25,54.5 C61.5596441,54.5 61,53.9403559 61,53.25 Z" id="Help-us-grow-icon"></path>
            </g>
        </g>
    </g>
</svg>