<svg width="62px" height="65px" viewBox="0 0 62 65" version="1.1" xmlns="http://www.w3.org/2000/svg" xmlns:xlink="http://www.w3.org/1999/xlink">
    <title>Stay up to date</title>
    <g id="Sketches" stroke="none" stroke-width="1" fill="none" fill-rule="evenodd">
        <g id="Research-Guide-Child" transform="translate(-944.000000, -3450.000000)">
            <g id="CTA-Block" transform="translate(83.000000, 3413.000000)">
                <g id="Stay-Up-to-Date" transform="translate(807.000000, 0.000000)">
                    <g id="Stay-up-to-date-icon" transform="translate(54.000000, 39.000000)">
                        <path d="M58.3923445,55.4210526 L4.13397129,55.4210526 C3.42086124,55.4210526 2.84210526,54.8450526 2.84210526,54.1353383 L2.84210526,23.2781955 C2.84210526,21.1516241 4.58095694,19.4210526 6.71770335,19.4210526 L9.30143541,19.4210526 C10.0145455,19.4210526 10.5933014,19.9970526 10.5933014,20.7067669 C10.5933014,21.4164812 10.0145455,21.9924812 9.30143541,21.9924812 L6.71770335,21.9924812 C6.00717703,21.9924812 5.42583732,22.5684812 5.42583732,23.2781955 L5.42583732,52.8496241 L57.1004785,52.8496241 L57.1004785,23.2781955 C57.1004785,22.5684812 56.5191388,21.9924812 55.8086124,21.9924812 L53.2248804,21.9924812 C52.5117703,21.9924812 51.9330144,21.4164812 51.9330144,20.7067669 C51.9330144,19.9970526 52.5117703,19.4210526 53.2248804,19.4210526 L55.8086124,19.4210526 C57.9453589,19.4210526 59.6842105,21.1516241 59.6842105,23.2781955 L59.6842105,54.1353383 C59.6842105,54.8450526 59.1054545,55.4210526 58.3923445,55.4210526 Z" id="Path" fill="#002D8C" fill-rule="nonzero"></path>
                        <path d="M55.1644737,63 L6.41447368,63 C2.87625,63 0,60.0768947 0,56.4868421 L0,53.8815789 C0,53.1625263 0.574736842,52.5789474 1.28289474,52.5789474 L60.2960526,52.5789474 C61.0042105,52.5789474 61.5789474,53.1625263 61.5789474,53.8815789 L61.5789474,56.4868421 C61.5789474,60.0768947 58.7026974,63 55.1644737,63 Z M2.56578947,55.1842105 L2.56578947,56.4868421 C2.56578947,58.6413947 4.29256579,60.3947368 6.41447368,60.3947368 L55.1644737,60.3947368 C57.2863816,60.3947368 59.0131579,58.6413947 59.0131579,56.4868421 L59.0131579,55.1842105 L2.56578947,55.1842105 Z" id="Shape" fill="#002D8C" fill-rule="nonzero"></path>
                        <g id="SLF_icon" transform="translate(19.000000, 0.000000)" stroke="#002D8C" stroke-width="2.25">
                            <g id="Group">
                                <path d="M0,0 C6.84039088,0.405844156 13.4364821,2.67857143 18.1596091,7.79220779 C21.3355049,11.2012987 23.3713355,15.5844156 24.3485342,20.1298701 C24.6742671,21.7532468 25,23.3766234 25,25 C20.7654723,25 3.58306189,25 3.58306189,25 C1.54723127,25 0,23.3766234 0,21.4285714 C0,21.4285714 0,18.75 0,18.6688312 C0.0814332248,12.7435065 0,0 0,0 Z" id="Path"></path>
                                <path d="M14.5454545,30.0797546 L14.5454545,30.0797546 L12.8909091,30.0797546 C11.8666667,30.0797546 11,30.8773006 11,31.9141104 C11,31.9141104 11,33.3496933 11,33.3496933 C11,36.4601227 11,43 11,43 C23.8424242,42.2822086 24,30 24,30 L14.5454545,30 L14.5454545,30.0797546 Z" id="Path"></path>
                                <path d="M5.12195122,30 L5.12195122,30 L5.97560976,30 C6.57317073,30 7,30.4320988 7,31.037037 L7,31.7283951 C7,31.7283951 7,37 7,37 C0,36.654321 0,30 0,30 L5.12195122,30 Z" id="Path"></path>
                            </g>
                        </g>
                    </g>
                </g>
            </g>
        </g>
    </g>
</svg>